<svg xmlns="http://www.w3.org/2000/svg" width="31.337" height="31.337"><path id="_5279111_network_fb_social_media_facebook_facebook_logo_icon" data-name="5279111_network_fb_social media_facebook_facebook logo_icon" d="M15.609 31.337Zm.111 0Zm-.158 0Zm.209 0Zm-.255 0Zm.306 0Zm.051 0Zm-.415 0Zm.465 0Zm-.514 0Zm.565 0Zm-.611 0Zm-.057 0Zm.719 0Zm-.769 0Zm.82 0Zm.05 0Zm-.916 0Zm-.044 0Zm1.01 0Zm.05 0Zm-1.124 0Zm-.046 0Zm1.22 0Zm-1.265 0Zm1.316 0Zm-1.379 0Zm1.429 0Zm-1.474 0Zm1.524 0Zm-1.569 0Zm1.619 0Zm.05 0Zm-1.709 0Zm1.759 0Zm-1.827 0Zm-.044 0Zm1.921 0Zm-1.963 0Zm2.013 0Zm.05 0h-.007.024-.016Zm-2.127 0h.024-.024Zm-.044 0h.023-.023Zm2.221 0h-.013.023Zm-2.265 0h.021-.021Zm2.315 0h-.017.021Zm-2.374 0Zm2.424 0Zm.05 0h-.009.019Zm-2.519 0h.019-.027Zm-.044 0Zm2.613 0Zm-2.662 0Zm2.712 0Zm.05 0Zm-2.813 0Zm-.046 0Zm2.909 0Zm-3.9-.124a15.669 15.669 0 1 1 4.9 0V20.2h3.651l.695-4.529h-4.356v-2.942a2.265 2.265 0 0 1 2.553-2.447h1.976V6.427a24.1 24.1 0 0 0-3.507-.306c-3.579 0-5.918 2.169-5.918 6.1v3.452H9.242V20.2h3.978Z" fill="#9197ae" fill-rule="evenodd"/></svg>