<svg xmlns="http://www.w3.org/2000/svg" width="31.337" height="31.337"><path id="_5279112_camera_instagram_social_media_instagram_logo_icon" data-name="5279112_camera_instagram_social media_instagram logo_icon" d="M15.669 0A15.669 15.669 0 1 1 0 15.669 15.676 15.676 0 0 1 15.669 0Zm0 5.876c-2.66 0-2.993.011-4.038.059a7.189 7.189 0 0 0-2.377.455A5.008 5.008 0 0 0 6.39 9.254a7.19 7.19 0 0 0-.455 2.377c-.048 1.045-.059 1.378-.059 4.038s.011 2.993.059 4.038a7.19 7.19 0 0 0 .455 2.377 5.008 5.008 0 0 0 2.864 2.864 7.19 7.19 0 0 0 2.377.455c1.045.048 1.378.059 4.038.059s2.993-.011 4.038-.059a7.19 7.19 0 0 0 2.377-.455 5.008 5.008 0 0 0 2.864-2.864 7.19 7.19 0 0 0 .455-2.377c.048-1.045.059-1.378.059-4.038s-.011-2.993-.059-4.038a7.19 7.19 0 0 0-.455-2.377 5.008 5.008 0 0 0-2.865-2.864 7.188 7.188 0 0 0-2.377-.455c-1.044-.048-1.378-.059-4.037-.059Zm0 1.764c2.615 0 2.925.01 3.957.057a5.419 5.419 0 0 1 1.818.337A3.243 3.243 0 0 1 23.3 9.893a5.417 5.417 0 0 1 .337 1.818c.047 1.033.057 1.342.057 3.957s-.01 2.925-.057 3.957a5.417 5.417 0 0 1-.337 1.818 3.243 3.243 0 0 1-1.856 1.857 5.417 5.417 0 0 1-1.818.337c-1.032.047-1.342.057-3.957.057s-2.925-.01-3.957-.057a5.417 5.417 0 0 1-1.819-.337 3.243 3.243 0 0 1-1.859-1.859 5.418 5.418 0 0 1-.334-1.815c-.047-1.033-.057-1.342-.057-3.957s.01-2.925.057-3.957a5.418 5.418 0 0 1 .337-1.818 3.243 3.243 0 0 1 1.856-1.859 5.419 5.419 0 0 1 1.818-.335c1.033-.047 1.342-.057 3.957-.057Zm0 3a5.029 5.029 0 1 0 5.031 5.029 5.029 5.029 0 0 0-5.029-5.029Zm0 8.293a3.264 3.264 0 1 1 3.264-3.264 3.264 3.264 0 0 1-3.264 3.264Zm6.4-8.492A1.175 1.175 0 1 1 20.9 9.266a1.175 1.175 0 0 1 1.171 1.175Z" fill="#9197ae" fill-rule="evenodd"/></svg>